HIERARCHY
ROOT Root
{
	OFFSET 0.00000 0.00000 0.00000
	CHANNELS 6 Xposition Yposition Zposition Zrotation Xrotation Yrotation
	JOINT Hip
	{
		OFFSET 0 0 0	
		CHANNELS 3 Zrotation Xrotation Yrotation
		JOINT Tummy
		{
			OFFSET 0 0.04 0	
			CHANNELS 3 Zrotation Xrotation Yrotation
			JOINT ChestBottom
			{
				OFFSET 0 0.194 0	
				CHANNELS 3 Zrotation Xrotation Yrotation
				JOINT ChestTop
				{
					OFFSET 0 0.166 0	
					CHANNELS 3 Zrotation Xrotation Yrotation
					JOINT LeftCollar
					{
						OFFSET 0 0.1 0	
						CHANNELS 3 Zrotation Xrotation Yrotation
						JOINT LeftUpperArm
						{
							OFFSET 0.156 -0.02 0.03	
							CHANNELS 3 Zrotation Xrotation Yrotation
							JOINT LeftForeArm
							{
								OFFSET 0.035 -0.27 -0.01	
								CHANNELS 3 Zrotation Xrotation Yrotation
								JOINT LeftHand
								{
									OFFSET 0.01 -0.27 0.01	
									CHANNELS 3 Zrotation Xrotation Yrotation
									End Site
									{
										OFFSET 0 -0.15 0
									}
								}
							}
						}
					}
					JOINT RightCollar
					{
						OFFSET 0 0.1 0	
						CHANNELS 3 Zrotation Xrotation Yrotation
						JOINT RightUpperArm
						{
							OFFSET -0.156 -0.02 0.03	
							CHANNELS 3 Zrotation Xrotation Yrotation
							JOINT RightForeArm
							{
								OFFSET -0.035 -0.27 -0.01	
								CHANNELS 3 Zrotation Xrotation Yrotation
								JOINT RightHand
								{
									OFFSET -0.01 -0.27 0.01	
									CHANNELS 3 Zrotation Xrotation Yrotation
									End Site
									{
										OFFSET 0 -0.15 0
									}
								}
							}
						}
					}
					JOINT Neck
					{
						OFFSET 0 0.1 0	
						CHANNELS 3 Zrotation Xrotation Yrotation
						JOINT Head
						{
							OFFSET 0 0.127 0.03	
							CHANNELS 3 Zrotation Xrotation Yrotation
							End Site
							{
								OFFSET 0 0.127 0.03
							}
						}
					}
				}
			}
		}
	}
	JOINT LeftHip
	{
		OFFSET 0 0 0	
		CHANNELS 3 Zrotation Xrotation Yrotation
		JOINT LeftThigh
		{
			OFFSET 0.088 -0.06 0	
			CHANNELS 3 Zrotation Xrotation Yrotation
			JOINT LeftLowerLeg
			{
				OFFSET 0 -0.39 0.02	
				CHANNELS 3 Zrotation Xrotation Yrotation
				JOINT LeftFootTop
				{
					OFFSET 0 -0.43 -0.02	
					CHANNELS 3 Zrotation Xrotation Yrotation
					JOINT LeftFootFront
					{
						OFFSET 0 -0.07 0.085	
						CHANNELS 3 Zrotation Xrotation Yrotation
						End Site
						{
							OFFSET 0 -0.005 0.09
						}
					}
				}
				JOINT LeftHeel
				{
					OFFSET 0 -0.43 -0.02	
					CHANNELS 3 Zrotation Xrotation Yrotation
					End Site
					{
						OFFSET 0 -0.075 -0.05
					}
				}
			}
		}
	}
	JOINT RightHip
	{
		OFFSET 0 0 0	
		CHANNELS 3 Zrotation Xrotation Yrotation
		JOINT RightThigh
		{
			OFFSET -0.088 -0.06 0	
			CHANNELS 3 Zrotation Xrotation Yrotation
			JOINT RightLowerLeg
			{
				OFFSET 0 -0.39 0.02	
				CHANNELS 3 Zrotation Xrotation Yrotation
				JOINT RightFootTop
				{
					OFFSET 0 -0.43 -0.02	
					CHANNELS 3 Zrotation Xrotation Yrotation
					JOINT RightFootFront
					{
						OFFSET 0 -0.07 0.085	
						CHANNELS 3 Zrotation Xrotation Yrotation
						End Site
						{
							OFFSET 0 -0.005 0.09
						}
					}
				}
				JOINT RightHeel
				{
					OFFSET 0 -0.43 -0.02	
					CHANNELS 3 Zrotation Xrotation Yrotation
					End Site
					{
						OFFSET 0 -0.075 -0.05
					}
				}
			}
		}
	}
}
MOTION
Frames: 13
Frame Time: 0.05
0 0.96978 0 -0 0 -0 -0.30787 7.1647 179.89 -1.32 5.5304 11.229 -1.32 5.5304 11.229 -1.0355 4.6645 9.4187 -0 0 -0 -0.75213 -21.164 -4.2214 -70.083 -74.456 12.276 -0 0 -0 -0 0 -0 -0.21145 -24.984 -4.164 97.05 -48.534 8.9611 -0 0 -0 -2.6757 -43.463 1.6438 -2.6757 -43.463 1.6438 -0.30787 7.1647 179.89 -2.7088 -13.131 13 -3.8737 19.121 9.4343 -0 0 -0 -0 0 -0 -0 0 -0 -0.30787 7.1647 179.89 4.4216 4.2093 6.0857 3.1478 23.812 8.6553 -0 0 -0 -0 0 -0 -0 0 -0 
0 0.96978 0 -0 0 -0 -1.4746 6.646 179.38 -2.3514 4.9967 11.796 -2.3514 4.9967 11.796 -1.9057 4.2314 9.8907 -0 0 -0 0.73631 -15.332 -1.0883 -127.25 -72.446 -50.394 -0 0 -0 -0 0 -0 -0.59798 -24.879 -8.2699 115.85 -44.356 30.713 -0 0 -0 -2.4152 -42.884 0.85905 -2.4152 -42.884 0.85906 -1.4746 6.646 179.38 -3.1559 -12.445 11.005 -4.213 14.207 7.461 -0 0 -0 -0 0 -0 -0 0 -0 -1.4746 6.646 179.38 3.507 4.7571 5.8426 1.0952 26.822 9.2 -0 0 -0 -0 0 -0 -0 0 -0 
0 0.96978 0 -0 0 -0 -3.0295 5.0636 179.7 -3.4158 3.9344 11.76 -3.4158 3.9344 11.76 -2.8152 3.3534 9.8605 -0 0 -0 2.1845 -13.883 3.8957 -143.65 -58.962 -74.691 -0 0 -0 -0 0 -0 -1.3055 -26.161 -12.268 128.36 -39.201 46.589 -0 0 -0 -1.7751 -41.577 1.2802 -1.7751 -41.577 1.2802 -3.0295 5.0636 179.7 -4.3483 -12.12 6.837 -6.1973 12.824 9.9017 -0 0 -0 -0 0 -0 -0 0 -0 -3.0295 5.0636 179.7 2.0336 2.9617 7.2601 -8.2063e-06 32.294 6.2775 -0 0 -0 -0 0 -0 -0 0 -0 
0 0.96978 0 -0 0 -0 -4.9547 2.9246 -178.7 -4.2414 2.6523 11.067 -4.2414 2.6523 11.067 -3.5291 2.2838 9.2825 -0 0 -0 3.6637 -16.485 4.2621 -150.66 -48.61 -91.639 -0 0 -0 -0 0 -0 -2.5989 -29.171 -13.294 137.74 -35.286 59.757 -0 0 -0 -1.704 -39.433 1.7259 -1.704 -39.433 1.7259 -4.9547 2.9246 -178.7 -7.3488 -10.592 7.6363 -6.0253 12.929 4.6161 -0 0 -0 -0 0 -0 -0 0 -0 -4.9547 2.9246 -178.7 0.26277 -1.0705 11.039 1.9287 40.348 -6.461 -0 0 -0 -0 0 -0 -0 0 -0 
0 0.96978 0 -0 0 -0 -6.3218 2.2867 -177.13 -4.145 1.8057 10.269 -4.145 1.8057 10.269 -3.4609 1.5672 8.617 -0 0 -0 2.7301 -20.286 -0.40161 -155.7 -43.104 -105.19 -0 0 -0 -0 0 -0 -1.6502 -31.305 -7.8678 143.41 -31.395 74.074 -0 0 -0 -2.5316 -36.082 2.0206 -2.5316 -36.082 2.0206 -6.3218 2.2867 -177.13 -8.3415 -8.7431 9.7966 -6.9322 14.385 -0.36134 -0 0 -0 -0 0 -0 -0 0 -0 -6.3218 2.2867 -177.13 -2.0354 -5.8411 15.62 8.2976 48.268 -20.147 -0 0 -0 -0 0 -0 -0 0 -0 
0 0.96978 0 -0 0 -0 -6.3588 3.6348 -175.69 -3.4534 2.357 9.3864 -3.4534 2.357 9.3864 -2.8753 2.0184 7.8746 -0 0 -0 1.2556 -28.628 -1.1869 -155.15 -42.987 -103.82 -0 0 -0 -0 0 -0 0.31219 -34.075 -1.3139 145.01 -30.593 85.594 -0 0 -0 -3.5666 -33.091 2.1115 -3.5666 -33.091 2.1115 -6.3588 3.6348 -175.69 -9.199 -5.1632 13.336 -6.8333 15.001 -4.1227 -0 0 -0 -0 0 -0 -0 0 -0 -6.3588 3.6348 -175.69 -4.9579 -9.791 10.729 6.2292 56.336 -9.3035 -0 0 -0 -0 0 -0 -0 0 -0 
0 0.96978 0 -0 0 -0 -5.8667 5.6635 -174.25 -2.9826 4.0222 8.4275 -2.9826 4.0222 8.4275 -2.4653 3.4089 7.0632 -0 0 -0 -0.016375 -37.726 -4.7724 -156.54 -47.98 -102.14 -0 0 -0 -0 0 -0 1.6494 -38.027 2.7684 145.14 -32.035 85.411 -0 0 -0 -3.7438 -31.238 1.7865 -3.7438 -31.238 1.7865 -5.8667 5.6635 -174.25 -9.2648 -0.11659 13.995 -7.3807 14.215 -5.3172 -0 0 -0 -0 0 -0 -0 0 -0 -5.8667 5.6635 -174.25 -4.941 -11.637 3.5337 -2.771 57.777 7.6759 -0 0 -0 -0 0 -0 -0 0 -0 
0 0.96978 0 -0 0 -0 -5.1227 7.6622 -173.18 -2.1814 4.8135 7.3987 -2.1814 4.8135 7.3987 -1.79 4.063 6.2001 -0 0 -0 -2.0048 -38.235 -11.334 -160.87 -50.742 -105.14 -0 0 -0 -0 0 -0 4.5622 -34.914 5.8131 143.39 -31.599 78.044 -0 0 -0 -2.8612 -28.205 2.0544 -2.8612 -28.205 2.0544 -5.1227 7.6622 -173.18 -8.9326 4.2157 12.255 -7.7575 13.351 -3.9745 -0 0 -0 -0 0 -0 -0 0 -0 -5.1227 7.6622 -173.18 -3.0749 -12.777 4.8419 -3.8287 54.064 6.0445 -0 0 -0 -0 0 -0 -0 0 -0 
0 0.96978 0 -0 0 -0 -3.7864 8.0804 -172.4 -0.66784 4.5838 6.2477 -0.66784 4.5838 6.2477 -0.52717 3.8557 5.2425 -0 0 -0 -4.6405 -32.988 -12.249 -158.15 -49.413 -99.983 -0 0 -0 -0 0 -0 4.9758 -29.229 5.21 141.06 -30.235 71.28 -0 0 -0 -2.3688 -23.559 3.22 -2.3688 -23.559 3.22 -3.7864 8.0804 -172.4 -7.105 5.6614 12.608 -7.7828 14.146 -5.1561 -0 0 -0 -0 0 -0 -0 0 -0 -3.7864 8.0804 -172.4 -0.65787 -14.228 12.251 0.72782 45.893 -8.932 -0 0 -0 -0 0 -0 -0 0 -0 
0 0.96978 0 -0 0 -0 -2.0303 8.6831 -170.86 1.0427 4.47 5.0301 1.0427 4.47 5.0301 0.90207 3.7489 4.2293 -0 0 -0 -5.354 -27.821 -6.8367 -147.45 -48.337 -83.346 -0 0 -0 -0 0 -0 0.97008 -26.562 -0.84518 137.51 -30.051 60.41 -0 0 -0 -1.7849 -16.98 4.4631 -1.7849 -16.98 4.4631 -2.0303 8.6831 -170.86 -5.3226 7.7804 14.64 -6.5913 14.695 -8.7486 -0 0 -0 -0 0 -0 -0 0 -0 -2.0303 8.6831 -170.86 1.0148 -15.714 16.725 3.9137 35.823 -16.391 -0 0 -0 -0 0 -0 -0 0 -0 
0 0.96978 0 -0 0 -0 -0.5404 8.6497 -169.45 2.0656 4.5943 4.5863 2.0656 4.5943 4.5863 1.7593 3.8484 3.8623 -0 0 -0 -5.1414 -24.867 -4.0273 -132.34 -49.918 -63.727 -0 0 -0 -0 0 -0 -5.0125 -24.328 -9.8056 132.76 -29.793 50.757 -0 0 -0 -0.085885 -11.381 4.4591 -0.085886 -11.381 4.4591 -0.5404 8.6497 -169.45 -3.6513 9.0321 16.201 -5.6825 15.476 -11.552 -0 0 -0 -0 0 -0 -0 0 -0 -0.5404 8.6497 -169.45 1.9136 -17.052 18.583 5.3337 24.788 -11.644 -0 0 -0 -0 0 -0 -0 0 -0 
0 0.96978 0 -0 0 -0 0.22699 8.8517 -168.33 1.5407 5.9318 5.0831 1.5407 5.9318 5.0831 1.329 4.9739 4.2779 -0 0 -0 -2.3455 -25.003 -4.343 -112.09 -51.323 -40.441 -0 0 -0 -0 0 -0 -7.2591 -21.257 -17.631 127.57 -29.809 45.75 -0 0 -0 2.9168 -12.044 2.0356 2.9168 -12.044 2.0356 0.22699 8.8517 -168.33 -2.3266 10.448 15.989 -5.5838 16.304 -12.333 -0 0 -0 -0 0 -0 -0 0 -0 0.22699 8.8517 -168.33 2.229 -16.426 19.426 3.7019 12.993 -8.1554 -0 0 -0 -0 0 -0 -0 0 -0 
0 0.96978 0 -0 0 -0 0.93557 8.274 -166.71 0.69818 5.8811 5.4108 0.69818 5.8811 5.4108 0.62363 4.9361 4.5471 -0 0 -0 0.23583 -19.485 -5.9548 -89.075 -50.123 -17.801 -0 0 -0 -0 0 -0 -4.3001 -12.554 -17.041 121.18 -35.389 42.166 -0 0 -0 4.2062 -15.842 -3.395 4.2062 -15.842 -3.395 0.93557 8.274 -166.71 -1.3436 12.157 16.517 -4.8209 16.025 -14.307 -0 0 -0 -0 0 -0 -0 0 -0 0.93557 8.274 -166.71 2.5906 -16.817 16.843 1.8603 5.1455 -9.7368 -0 0 -0 -0 0 -0 -0 0 -0 
